<mxfile host="app.diagrams.net" agent="Mozilla/5.0 (Windows NT 10.0; Win64; x64) AppleWebKit/537.36 (KHTML, like Gecko) Chrome/135.0.0.0 Safari/537.36" version="26.2.9">
  <diagram name="Page-1" id="2YBvvXClWsGukQMizWep">
    <mxGraphModel dx="720" dy="388" grid="1" gridSize="10" guides="1" tooltips="1" connect="1" arrows="1" fold="1" page="1" pageScale="1" pageWidth="850" pageHeight="1100" math="0" shadow="1">
      <root>
        <mxCell id="0" />
        <mxCell id="1" parent="0" />
        <mxCell id="A36JtONV89d0JLzI77af-2" style="edgeStyle=orthogonalEdgeStyle;rounded=0;orthogonalLoop=1;jettySize=auto;html=1;exitX=0.875;exitY=0.5;exitDx=0;exitDy=0;exitPerimeter=0;" edge="1" parent="1" source="A36JtONV89d0JLzI77af-4">
          <mxGeometry relative="1" as="geometry">
            <mxPoint x="600" y="225" as="targetPoint" />
            <mxPoint x="520" y="230" as="sourcePoint" />
          </mxGeometry>
        </mxCell>
        <mxCell id="A36JtONV89d0JLzI77af-4" value="&lt;div&gt;&lt;b&gt;&lt;font style=&quot;color: rgb(51, 82, 224);&quot;&gt;Linguagens Utilizadas&lt;/font&gt;&lt;/b&gt;&lt;/div&gt;" style="ellipse;shape=cloud;whiteSpace=wrap;html=1;" vertex="1" parent="1">
          <mxGeometry x="350" y="160" width="200" height="130" as="geometry" />
        </mxCell>
        <mxCell id="A36JtONV89d0JLzI77af-5" value="" style="curved=1;endArrow=classic;html=1;rounded=0;exitX=0.16;exitY=0.55;exitDx=0;exitDy=0;exitPerimeter=0;entryX=0.5;entryY=0;entryDx=0;entryDy=0;" edge="1" parent="1" source="A36JtONV89d0JLzI77af-4" target="A36JtONV89d0JLzI77af-6">
          <mxGeometry width="50" height="50" relative="1" as="geometry">
            <mxPoint x="360.692029421559" y="228.74104705515867" as="sourcePoint" />
            <mxPoint x="290" y="270" as="targetPoint" />
            <Array as="points">
              <mxPoint x="330" y="240" />
              <mxPoint x="280" y="190" />
            </Array>
          </mxGeometry>
        </mxCell>
        <mxCell id="A36JtONV89d0JLzI77af-6" value="&lt;div&gt;&lt;ul&gt;&lt;li&gt;&lt;b&gt;Marcação&lt;/b&gt;: &lt;font style=&quot;color: rgb(255, 39, 4);&quot;&gt;HTML&lt;/font&gt;&lt;/li&gt;&lt;li&gt;&lt;b&gt;Estilização&lt;/b&gt;: &lt;font style=&quot;color: rgb(51, 82, 224);&quot;&gt;CSS&lt;/font&gt;&lt;/li&gt;&lt;/ul&gt;&lt;/div&gt;" style="rounded=1;whiteSpace=wrap;html=1;align=left;" vertex="1" parent="1">
          <mxGeometry x="200" y="260" width="160" height="60" as="geometry" />
        </mxCell>
        <mxCell id="A36JtONV89d0JLzI77af-7" value="&lt;b&gt;Futuramente serão adicionadas:&lt;/b&gt;" style="shape=note;whiteSpace=wrap;html=1;backgroundOutline=1;darkOpacity=0.05;" vertex="1" parent="1">
          <mxGeometry x="590" y="180" width="120" height="100" as="geometry" />
        </mxCell>
        <mxCell id="A36JtONV89d0JLzI77af-18" value="&lt;div&gt;&lt;b&gt;Linguagens&amp;nbsp; de Programação:&lt;/b&gt;&lt;/div&gt;&lt;div&gt;&lt;br&gt;&lt;/div&gt;&lt;font style=&quot;color: rgb(204, 204, 0);&quot;&gt;&lt;font&gt;JavaScript&lt;/font&gt;...&lt;/font&gt;" style="whiteSpace=wrap;html=1;aspect=fixed;" vertex="1" parent="1">
          <mxGeometry x="470" y="340" width="135" height="135" as="geometry" />
        </mxCell>
        <mxCell id="A36JtONV89d0JLzI77af-20" value="" style="curved=1;endArrow=classic;html=1;rounded=0;entryX=0.5;entryY=0;entryDx=0;entryDy=0;exitX=0.175;exitY=0.994;exitDx=0;exitDy=0;exitPerimeter=0;" edge="1" parent="1" source="A36JtONV89d0JLzI77af-7" target="A36JtONV89d0JLzI77af-18">
          <mxGeometry width="50" height="50" relative="1" as="geometry">
            <mxPoint x="560" y="340" as="sourcePoint" />
            <mxPoint x="610" y="290" as="targetPoint" />
            <Array as="points">
              <mxPoint x="610" y="340" />
              <mxPoint x="560" y="290" />
              <mxPoint x="538" y="310" />
            </Array>
          </mxGeometry>
        </mxCell>
      </root>
    </mxGraphModel>
  </diagram>
</mxfile>
